<?xml version="1.0" encoding="UTF-8"?>
<svg id="Layer_2" data-name="Layer 2" xmlns="http://www.w3.org/2000/svg" viewBox="0 0 1600 668">
  <defs>
    <style>
      .cls-1 {
        isolation: isolate;
      }

      .cls-2 {
        fill: #dc4547;
      }

      .cls-2, .cls-3 {
        stroke-width: 0px;
      }

      .cls-3 {
        fill: #fff;
      }
    </style>
  </defs>
  <g id="Layer_2-2" data-name="Layer 2">
    <g id="Layer_1-2" data-name="Layer 1-2">
      <rect class="cls-2" width="1600" height="668"/>
      <path class="cls-3" d="M91.92,508.37s3.04,1.74,6.5,4.33c22.12,16.49,53.76,20.39,76.32,9.54,3.04-1.3,5.64-2.18,5.64-1.74s0,0,.86,0,3.04-2.6,5.64-4.33c6.08-4.33,12.58-10.4,14.74-14.32,2.16-3.47,18.22-21.68,22.54-26.45,4.32-4.77,3.46-4.77,3.9-6.95s1.74-5.63,3.04-6.95c1.3-1.3,4.34-9.54,7.38-17.35,2.6-8.25,5.64-16.05,6.5-18.21,3.9-8.69,3.04-8.25-31.66,8.25-51.16,24.3-68.08,24.3-97.12,0-18.22-15.17-29.48-37.3-19.52-37.3s3.9,1.3,6.94,7.81c11.28,22.56,33.82,37.3,55.94,37.3s16.04,0,51.6-17.35c26.44-12.58,30.36-14.32,36.42-14.32s4.76,0,6.5-5.63c1.3-3.47,4.34-11.72,7.38-18.65,6.5-16.05,6.5-14.75-1.74-21.26-13-10.4-39.9-39.47-47.7-51.61-21.68-34.26-44.66-102.8-37.28-110.61,4.34-4.33,7.38,0,8.68,12.58.44,5.63,1.74,11.28,2.16,12.58.44,1.3,2.6,7.37,4.76,13.44,15.6,49.02,29.48,72.44,57.24,99.33,18.22,17.79,16.48,16.91,22.98,9.1,6.94-7.37,8.24-11.72,14.3-38.17,6.5-26.89,6.94-34.7,6.94-71.14,0-50.75,4.76-68.96,29.92-108.43,8.68-13.88,10.84-15.61,14.3-11.72,1.44,1.74,1.02,4.77-1.3,9.1-30.78,50.75-32.52,56.38-32.96,106.7,0,42.51-2.16,58.56-9.54,87.19-1.44,6.36.87,7.37,6.94,3.03,18.64-13.44,42.92-26.89,65.48-36.44,61.14-25.6,75.02-34.26,88.02-56.38,6.08-10.4,10.4-14.32,13-11.72,3.04,2.6,2.16,4.33-3.04,13.88-16.48,27.33-31.22,37.74-98.42,65.07-19.94,8.25-46.4,23.42-67.2,39.03-11.28,8.69-11.28,8.25-14.74,19.53-2.16,5.63-6.08,16.49-9.54,24.72-6.94,16.49-6.94,17.35,0,20.82,7.38,3.91,27.32,2.6,60.7-3.91,10.4-2.18,27.32-5.21,39.02-6.51,30.36-4.33,55.5-15.17,74.14-30.81,8.68-7.37,9.98-7.81,12.14-5.63,10.4,11.28-42.5,39.47-85.86,45.98-11.7,1.74-29.48,4.77-39.9,6.95-32.96,6.51-50.74,7.37-62.88,3.47-9.1-3.03-9.1-2.6-7.8,9.54,3.46,32.52,32.08,80.68,55.5,92.82,10.84,5.63,39.02,12.14,56.36,13.02,12.14.44,8.24,9.54-4.34,9.54s-45.52-7.81-56.36-13.88c-19.94-10.4-45.96-47.72-55.5-79.38-1.3-4.33-2.6-9.1-3.04-9.98s-.86-1.3-1.3-1.3c-.86,0-13,36.44-13,39.91s-.86,2.6-1.74,3.47c-1.3,1.3-1.3,3.47-.44,7.37.44,3.03,1.3,13.02,1.74,22.12.86,27.33,9.1,48.58,26.44,69.84.44.44,1.74,2.6,2.6,4.33,6.94,13.44,30.36,26.89,60.7,34.26,20.82,5.21,44.66,2.6,63.3-6.95,17.34-8.69,30.36-21.26,39.9-37.3,2.16-3.47,3.9-6.51,4.76-6.51s.86-.44.86-1.3c0-2.18,12.14-27.33,13.88-28.63.86-.44.86-.86.44-.86s1.3-3.91,3.46-8.69c13-26.45,17.78-57.68,12.14-77.21-3.46-12.14-8.68-13.44-22.12-5.63-4.76,2.6-8.68,4.77-8.68,4.77,0,0-5.2,3.03-11.28,6.51-6.08,3.47-11.28,6.51-12.14,6.07-.44,0-.86,0-.86.44,0,7.37-47.26,9.54-60.7,2.6-26.02-13.88-10.4-29.93,32.96-33.84,7.8-.44,20.38-2.6,33.82-4.33,65.04-9.54,104.94-46.42,95.82-90.23-.44-3.47-1.3-7.37-1.74-9.54s-.44-4.33-1.3-5.63c0-.86-1.3-5.63-2.16-9.98-4.34-24.3-11.28-36-20.82-36s-4.76-2.6,0-6.51c8.68-7.81,14.74-14.75,17.34-20.39,9.98-21.26-5.64-85.45-22.98-94.56-8.24-4.33-19.94,6.07-44.22,39.03-3.9,5.63-8.68,11.28-9.54,12.58-1.3,1.3-5.2,6.51-9.54,11.72s-10.4,12.58-13.44,16.49c-3.46,3.91-7.38,8.69-8.68,10.4-4.76,7.81-22.98,19.53-31.22,19.53s-19.94-19.53-16.48-32.52c2.16-6.51,7.38-16.91,9.1-16.91s1.3-.44,1.3-1.74c0-2.18,13.88-16.91,22.54-24.3,3.46-3.03,6.94-5.63,6.94-6.51,0,0,2.16-2.18,4.76-3.47s4.76-3.47,5.64-4.33c.86-.86,3.9-3.47,6.94-6.51,3.04-2.6,6.08-5.21,6.08-5.63s.86-.86,1.3-.86c1.3,0,8.24-7.37,8.24-8.25s.86-1.3,2.16-2.6c22.98-20.39,19.52-45.1-8.24-59.42-6.08-3.47-11.7-6.51-12.14-6.95s-1.3-.86-1.74-.86c-2.16,0-7.8-2.6-8.24-4.33,0-.86-1.3-1.3-1.74-1.3s-2.6-1.74-4.76-4.33c-3.46-4.77-4.76-8.69-8.68-22.98-2.16-9.1-8.68-7.81-19.52,3.47-8.68,9.1-17.78,16.49-19.52,15.61-.44,0-1.3,0-1.3.44,0,2.18-14.74,7.37-25.14,8.25-1.74,0-3.9.44-5.2,1.3-3.04.86-28.18,5.63-34.68,6.51-3.04,0-6.08,1.3-7.8,1.74-1.3.44-2.6.86-3.04.44s-1.3,0-2.16,0c-.44.44-3.9,2.18-7.8,3.47-19.08,6.51-30.36,15.61-34.68,29.07-3.46,10.4-2.16,17.79,9.54,54.23,4.34,13.44,7.8,24.72,8.24,26.04,0,.86.44,2.18.44,2.18v1.3c0,.86.44,1.3.86,2.18,1.74,2.6,12.58,37.3,12.14,38.17,0,0,0,.44.44.44,3.9,0,4.76,30.37,1.3,37.3-3.9,7.37-15.18,14.75-15.18,9.54s-.44-.86-1.3-.44c-1.3.44-6.94-3.47-9.98-7.37-5.2-6.51-16.48-34.7-18.22-45.1,0-2.6-1.3-6.95-1.74-9.98-1.3-7.37-1.3-34.7,0-42.51,2.6-13.44,3.04-29.93,1.3-34.26-4.76-10.84-21.68-9.1-35.56,3.47-3.04,2.6-7.8,6.51-10.84,8.69s-6.5,4.77-7.8,6.07-4.76,4.33-7.8,6.51c-32.96,26.45-30.36,47.28,13.88,114.09,2.16,3.47,4.34,6.51,4.76,7.37,3.9,5.21,6.08,9.1,5.2,9.54,0,0,0,.86.44.86,1.74,0,10.84,13.44,20.38,30.37,14.74,26.45-16.04,32.11-39.02,7.37-11.28-11.72-19.52-25.6-29.06-46.42-13.44-30.37-22.12-36.44-32.08-20.82-7.8,11.28-32.96,68.54-35.12,79.38,0,1.3-1.3,5.63-2.16,9.54s-2.16,10.84-3.04,15.61-2.16,10.84-2.6,13.88c-4.76,24.3,1.74,59.86,15.6,81.54,6.5,8.25,26.44,31.23,28.18,31.23h1.3l.12-.08ZM435.78,337.04c-14.74,16.49-42.92,31.23-72.84,38.61-22.54,5.63-33.82-2.6-20.38-13.88,6.94-6.07,42.06-23.86,42.06-21.26s0,0,.86,0c.44-.44,6.08-3.47,13-6.51,21.68-9.54,37.72-18.65,46.82-26.04,9.1-7.37,12.14-8.69,12.14-5.63s-15.6,29.49-21.24,35.56l-.44-.86h.02Z"/>
      <g class="cls-1">
        <g class="cls-1">
          <path class="cls-3" d="M681.5,157.45v-57.44h-51.9v57.44h-16.22V38.61h16.22v47.62h51.9v-47.62h16.22v118.84h-16.22Z"/>
          <path class="cls-3" d="M769.88,147.49c-6.16,7.73-15.6,11.6-28.3,11.6-6.82,0-12.72-2.48-17.72-7.43s-7.5-11.1-7.5-18.45c0-8.8,3.86-16.27,11.56-22.34,7.7-6.09,17.52-9.12,29.48-9.12,3.24,0,6.92.7,11.02,2.12,0-14.06-6.28-21.08-18.82-21.08-9.62,0-17.02,2.6-22.22,7.79l-6.48-12.9c2.92-2.38,6.96-4.41,12.12-6.13,5.16-1.7,10.1-2.56,14.8-2.56,12.6,0,21.74,2.88,27.44,8.61,5.7,5.73,8.56,14.85,8.56,27.33v31.15c0,7.63,2.28,12.72,6.82,15.25v7.71c-6.28,0-10.96-.9-14.06-2.68s-5.34-4.73-6.68-8.84l-.02-.02ZM768.42,114.78c-4.86-1.08-8.28-1.62-10.22-1.62-7.78,0-14.14,2-19.06,6.01-4.92,3.99-7.38,8.73-7.38,14.2,0,9.02,5.32,13.56,15.98,13.56,7.78,0,14.68-3.69,20.68-11.12v-21.02Z"/>
          <path class="cls-3" d="M908.64,157.45v-55.01c0-13.68-5.92-20.52-17.76-20.52-3.74,0-7.22,1.16-10.46,3.45-3.24,2.3-5.46,4.91-6.64,7.83v64.25h-15.4v-61.73c0-4.27-1.6-7.65-4.82-10.1-3.22-2.46-7.48-3.69-12.78-3.69-3.08,0-6.36,1.2-9.86,3.57-3.48,2.38-5.96,5.01-7.42,7.87v64.09h-15.4v-86.87h10.06l5.1,10.06c5.94-7.79,13.38-11.68,22.3-11.68,12.44,0,21.14,3.87,26.1,11.6,1.74-3.29,4.94-6.05,9.64-8.27s9.54-3.33,14.52-3.33c8.98,0,15.92,2.66,20.84,7.99s7.38,12.8,7.38,22.42v58.08h-15.4,0Z"/>
          <path class="cls-3" d="M953.4,157.45v-73.89h-11.92v-12.98h27.32v86.87h-15.4ZM961.82,37.72c2.64,0,4.9.94,6.78,2.8s2.8,4.09,2.8,6.69-.94,4.91-2.8,6.77-4.12,2.8-6.78,2.8-4.82-.94-6.68-2.8-2.8-4.13-2.8-6.77.92-4.89,2.76-6.73c1.84-1.84,4.08-2.76,6.74-2.76h-.02Z"/>
          <path class="cls-3" d="M994.5,132.87V34.96h15.4v95.32c0,4.65,1.34,8.31,4.02,11s6.18,4.01,10.5,4.01v13.8c-19.94,0-29.92-8.73-29.92-26.2v-.02Z"/>
          <path class="cls-3" d="M1047.78,82.74h-10.06v-12.16h10.06v-18.17l15.4-5.93v24.1h23.84v12.16h-23.84v43.15c0,7.31,1.24,12.5,3.68,15.57,2.46,3.07,6.42,4.63,11.88,4.63,3.94,0,8.02-1,12.24-2.99l2.26,13.56c-6.38,1.62-13.38,2.44-21,2.44-6.86,0-12.66-2.56-17.4-7.67s-7.1-11.56-7.1-19.35v-49.32l.04-.02Z"/>
          <path class="cls-3" d="M1102.44,113.83c0-13.42,3.6-24.24,10.82-32.48s16.72-12.38,28.5-12.38c12.44,0,22.08,3.95,28.94,11.88s10.3,18.91,10.3,32.98-3.52,25.06-10.54,33.14-16.6,12.12-28.7,12.12-22.02-4.07-28.94-12.24-10.38-19.17-10.38-33.02ZM1118.66,113.83c0,21.8,7.7,32.68,23.12,32.68,7.18,0,12.82-2.92,16.9-8.77s6.12-13.82,6.12-23.94c0-21.52-7.68-32.28-23.02-32.28-7.02,0-12.64,2.88-16.82,8.61-4.2,5.73-6.28,13.64-6.28,23.68l-.02.02Z"/>
          <path class="cls-3" d="M1250.66,157.45v-50.53c0-9.24-1.4-15.73-4.18-19.43s-7.44-5.55-13.98-5.55c-3.52,0-7.18,1.06-11.02,3.15-3.84,2.12-6.78,4.71-8.84,7.79v64.57h-15.4v-86.87h10.54l4.86,11.2c5.08-8.55,13.38-12.82,24.9-12.82,19.02,0,28.54,11.58,28.54,34.72v53.79h-15.4l-.02-.02Z"/>
        </g>
        <g class="cls-1">
          <path class="cls-3" d="M647.28,356.99h-33.9v-118.84c14.44-.7,24.84-1.06,31.22-1.06,11.72,0,20.82,2.54,27.24,7.59,6.44,5.05,9.64,12.3,9.64,21.7,0,5.51-2.06,10.54-6.16,15.09s-8.64,7.39-13.62,8.53c9.4,2.28,16.26,6.03,20.56,11.28,4.3,5.25,6.44,12.38,6.44,21.42,0,10.44-3.82,18.77-11.48,24.98s-17.64,9.32-29.96,9.32l.02-.02ZM629.6,251.13v34.14c3.4.32,7.62.48,12.66.48,15.36,0,23.02-6.25,23.02-18.75,0-10.98-7.06-16.47-21.16-16.47-5.4,0-10.24.2-14.52.56v.04ZM629.6,297.85v45.34c5.56.54,9.84.82,12.82.82,10.16,0,17.58-1.9,22.26-5.71s7.02-9.88,7.02-18.21c0-7.73-2.24-13.44-6.7-17.11s-11.9-5.51-22.34-5.51l-13.06.4v-.02Z"/>
          <path class="cls-3" d="M700.48,313.35c0-13.42,3.6-24.24,10.82-32.48,7.22-8.25,16.72-12.38,28.5-12.38,12.44,0,22.08,3.95,28.94,11.88s10.3,18.91,10.3,32.98-3.52,25.06-10.54,33.14c-7.02,8.09-16.6,12.12-28.7,12.12s-22.02-4.07-28.94-12.24c-6.92-8.17-10.38-19.17-10.38-33.02ZM716.7,313.35c0,21.8,7.7,32.68,23.12,32.68,7.18,0,12.82-2.92,16.9-8.77,4.08-5.83,6.12-13.82,6.12-23.94,0-21.52-7.68-32.28-23.02-32.28-7.02,0-12.64,2.88-16.82,8.61-4.2,5.73-6.28,13.64-6.28,23.68l-.02.02Z"/>
          <path class="cls-3" d="M800.78,282.28h-10.06v-12.16h10.06v-18.17l15.4-5.93v24.1h23.84v12.16h-23.84v43.15c0,7.31,1.24,12.5,3.68,15.57,2.46,3.07,6.42,4.63,11.88,4.63,3.94,0,8.02-1,12.24-2.99l2.26,13.56c-6.38,1.62-13.38,2.44-21,2.44-6.86,0-12.66-2.56-17.4-7.67-4.74-5.11-7.1-11.56-7.1-19.35v-49.32l.04-.02Z"/>
          <path class="cls-3" d="M910.18,347.01c-6.16,7.73-15.6,11.6-28.3,11.6-6.82,0-12.72-2.48-17.72-7.43s-7.5-11.1-7.5-18.45c0-8.8,3.86-16.27,11.56-22.34,7.7-6.09,17.52-9.12,29.48-9.12,3.24,0,6.92.7,11.02,2.12,0-14.06-6.28-21.08-18.82-21.08-9.62,0-17.02,2.6-22.22,7.79l-6.48-12.9c2.92-2.38,6.96-4.41,12.12-6.13,5.16-1.7,10.1-2.56,14.8-2.56,12.6,0,21.74,2.88,27.44,8.61s8.56,14.85,8.56,27.33v31.15c0,7.63,2.28,12.72,6.82,15.25v7.71c-6.28,0-10.96-.9-14.08-2.68-3.1-1.78-5.34-4.73-6.68-8.84v-.02ZM908.72,314.32c-4.86-1.08-8.28-1.62-10.22-1.62-7.78,0-14.14,2-19.06,6.01-4.92,3.99-7.38,8.73-7.38,14.2,0,9.02,5.32,13.54,15.98,13.54,7.78,0,14.68-3.69,20.68-11.12v-21h0Z"/>
          <path class="cls-3" d="M1001.8,356.99v-50.53c0-9.24-1.4-15.73-4.18-19.43-2.78-3.69-7.44-5.55-13.98-5.55-3.52,0-7.18,1.06-11.02,3.15-3.84,2.12-6.78,4.71-8.84,7.79v64.57h-15.4v-86.87h10.54l4.86,11.2c5.08-8.55,13.38-12.82,24.9-12.82,19.02,0,28.54,11.58,28.54,34.72v53.79h-15.4l-.02-.02Z"/>
          <path class="cls-3" d="M1046.56,356.99v-73.89h-11.92v-12.98h27.32v86.87h-15.4,0ZM1055,237.26c2.64,0,4.9.94,6.78,2.8s2.8,4.09,2.8,6.69-.94,4.91-2.8,6.77c-1.86,1.86-4.12,2.8-6.78,2.8s-4.82-.94-6.68-2.8c-1.86-1.86-2.8-4.13-2.8-6.77s.92-4.89,2.76-6.73c1.84-1.84,4.08-2.76,6.74-2.76h-.02Z"/>
          <path class="cls-3" d="M1151.98,277.17l-7.62,10.86c-1.56-1.58-4.34-3.05-8.32-4.45s-7.88-2.12-11.72-2.12c-8.38,0-15.02,2.93-19.94,8.8-4.92,5.87-7.38,13.92-7.38,24.14s2.52,17.91,7.54,23.24,12,7.99,20.92,7.99c6.92,0,13.9-2.68,20.92-8.03l6.08,12.98c-8.28,5.35-18.52,8.03-30.74,8.03s-21.62-3.97-29.36-11.92c-7.74-7.95-11.6-18.71-11.6-32.28s4.02-24.96,12.04-33.34,19.02-12.58,32.96-12.58c4.48,0,9.36.94,14.6,2.84s9.1,3.83,11.6,5.85h.02Z"/>
          <path class="cls-3" d="M1217.74,347.01c-6.16,7.73-15.6,11.6-28.3,11.6-6.82,0-12.72-2.48-17.72-7.43s-7.5-11.1-7.5-18.45c0-8.8,3.86-16.27,11.56-22.34,7.7-6.09,17.52-9.12,29.48-9.12,3.24,0,6.92.7,11.02,2.12,0-14.06-6.28-21.08-18.82-21.08-9.62,0-17.02,2.6-22.22,7.79l-6.48-12.9c2.92-2.38,6.96-4.41,12.12-6.13,5.16-1.7,10.1-2.56,14.8-2.56,12.6,0,21.74,2.88,27.44,8.61s8.56,14.85,8.56,27.33v31.15c0,7.63,2.28,12.72,6.82,15.25v7.71c-6.28,0-10.96-.9-14.08-2.68-3.1-1.78-5.34-4.73-6.68-8.84v-.02ZM1216.28,314.32c-4.86-1.08-8.28-1.62-10.22-1.62-7.78,0-14.14,2-19.06,6.01-4.92,3.99-7.38,8.73-7.38,14.2,0,9.02,5.32,13.54,15.98,13.54,7.78,0,14.68-3.69,20.68-11.12v-21h0Z"/>
          <path class="cls-3" d="M1257.16,332.41v-97.91h15.4v95.32c0,4.65,1.34,8.31,4.02,10.98s6.18,4.01,10.5,4.01v13.8c-19.94,0-29.92-8.73-29.92-26.2Z"/>
        </g>
        <g class="cls-1">
          <path class="cls-3" d="M689.2,442.07l-5.44,13.88c-5.18-3.79-13.36-5.67-24.48-5.67-10.44,0-18.8,4.49-25.1,13.48-6.3,8.98-9.44,20.54-9.44,34.72s3.22,24.48,9.7,32.9c6.46,8.41,14.8,12.62,25.02,12.62,11.14,0,19.7-3.95,25.7-11.84l8.92,12.42c-9.4,9.36-21.52,14.04-36.32,14.04s-27.74-5.59-36.66-16.79c-8.92-11.2-13.38-25.96-13.38-44.28s4.76-32.46,14.28-44.2c9.52-11.74,21.82-17.61,36.9-17.61,12.92,0,23.02,2.14,30.32,6.41l-.02-.06Z"/>
          <path class="cls-3" d="M705.82,512.88c0-13.42,3.6-24.24,10.82-32.48,7.22-8.25,16.72-12.38,28.5-12.38,12.44,0,22.08,3.95,28.94,11.88s10.3,18.91,10.3,32.98-3.52,25.06-10.54,33.14c-7.02,8.09-16.6,12.12-28.7,12.12s-22.02-4.07-28.94-12.24-10.38-19.17-10.38-33.02ZM722.04,512.88c0,21.8,7.7,32.68,23.12,32.68,7.18,0,12.82-2.92,16.9-8.77,4.08-5.83,6.12-13.82,6.12-23.94,0-21.52-7.68-32.28-23.02-32.28-7.02,0-12.64,2.88-16.82,8.61-4.2,5.73-6.28,13.64-6.28,23.68l-.02.02Z"/>
          <path class="cls-3" d="M854.06,556.53v-50.53c0-9.24-1.4-15.73-4.18-19.43-2.78-3.69-7.44-5.55-13.98-5.55-3.52,0-7.18,1.06-11.02,3.15-3.84,2.12-6.78,4.71-8.84,7.79v64.57h-15.4v-86.87h10.54l4.86,11.2c5.08-8.55,13.38-12.82,24.9-12.82,19.02,0,28.54,11.58,28.54,34.72v53.79h-15.4l-.02-.02Z"/>
          <path class="cls-3" d="M885.68,551.34l5.44-14.6c8.6,5.63,15.52,8.43,20.76,8.43,9.52,0,14.28-3.99,14.28-12,0-5.73-4.6-10.66-13.78-14.75-7.08-3.23-11.86-5.71-14.32-7.39-2.46-1.68-4.6-3.57-6.4-5.71-1.82-2.14-3.16-4.41-4.06-6.81-.9-2.42-1.34-4.99-1.34-7.75,0-7.15,2.6-12.72,7.78-16.71,5.18-3.99,11.98-6.01,20.36-6.01,6.32,0,14.3,2,23.92,6.01l-4.38,14.28c-6.1-4.87-12.24-7.31-18.4-7.31-3.68,0-6.78.86-9.28,2.6s-3.76,3.91-3.76,6.57c0,5.57,3.16,9.78,9.48,12.66l11.02,5.03c6.76,3.07,11.68,6.61,14.76,10.54,3.08,3.95,4.62,8.9,4.62,14.85,0,7.79-2.74,13.88-8.18,18.29-5.46,4.41-13.02,6.61-22.7,6.61-9.14,0-17.74-2.28-25.78-6.81l-.04-.02Z"/>
          <path class="cls-3" d="M1031.72,514.58h-62.6c0,10.16,2.78,17.99,8.36,23.44,4.92,4.75,11.24,7.15,18.98,7.15,8.82,0,16.16-2.58,22.06-7.71l6.48,11.12c-2.38,2.38-6.02,4.43-10.94,6.17-6.16,2.28-13.02,3.41-20.6,3.41-10.92,0-20.18-3.69-27.82-11.12-8.48-8.17-12.74-19.15-12.74-32.94s4.34-25.82,13.06-34.48c7.78-7.73,17-11.6,27.66-11.6,12.38,0,22.08,3.49,29.12,10.46,6.82,6.71,10.22,15.59,10.22,26.69,0,3.41-.4,6.55-1.22,9.4h-.02ZM994.34,481c-6.86,0-12.62,2.22-17.28,6.65-4.44,4.21-6.94,9.46-7.54,15.73h48.08c0-6.21-1.94-11.4-5.84-15.57-4.26-4.55-10.08-6.81-17.44-6.81h.02Z"/>
          <path class="cls-3" d="M1096.36,484.49c-3.36-2.32-6.74-3.49-10.14-3.49-5.46,0-10.24,2.52-14.32,7.55-4.08,5.03-6.12,11.08-6.12,18.17v49.82h-15.4v-86.87h15.4v13.88c5.62-10.32,13.98-15.49,25.06-15.49,2.76,0,6.74.48,11.92,1.46l-6.4,15.01v-.02Z"/>
          <path class="cls-3" d="M1145,558.15h-4.06l-37.22-88.75h16.86l22.94,60.84,23.44-60.84h16.14l-38.12,88.75h.02Z"/>
          <path class="cls-3" d="M1244.1,546.55c-6.16,7.73-15.6,11.6-28.3,11.6-6.82,0-12.72-2.48-17.72-7.43-5-4.95-7.5-11.1-7.5-18.45,0-8.8,3.86-16.27,11.56-22.34,7.7-6.09,17.52-9.12,29.48-9.12,3.24,0,6.92.7,11.02,2.12,0-14.06-6.28-21.08-18.82-21.08-9.62,0-17.02,2.6-22.22,7.79l-6.48-12.9c2.92-2.38,6.96-4.41,12.12-6.13,5.16-1.7,10.1-2.56,14.8-2.56,12.6,0,21.74,2.88,27.44,8.61s8.56,14.83,8.56,27.33v31.15c0,7.63,2.28,12.72,6.82,15.25v7.71c-6.28,0-10.96-.9-14.08-2.68-3.1-1.78-5.34-4.73-6.68-8.84v-.02ZM1242.64,513.86c-4.86-1.08-8.28-1.62-10.22-1.62-7.78,0-14.14,2-19.06,6.01-4.92,3.99-7.38,8.73-7.38,14.2,0,9.02,5.32,13.54,15.98,13.54,7.78,0,14.68-3.69,20.68-11.12v-21Z"/>
          <path class="cls-3" d="M1287.8,481.82h-10.06v-12.16h10.06v-18.17l15.4-5.93v24.1h23.84v12.16h-23.84v43.17c0,7.31,1.24,12.5,3.68,15.57,2.46,3.07,6.42,4.63,11.88,4.63,3.94,0,8.02-1,12.24-2.99l2.26,13.56c-6.38,1.62-13.38,2.44-21,2.44-6.86,0-12.66-2.56-17.4-7.67s-7.1-11.56-7.1-19.35v-49.32l.04-.04Z"/>
          <path class="cls-3" d="M1342.46,512.88c0-13.42,3.6-24.24,10.82-32.48,7.22-8.25,16.72-12.38,28.5-12.38,12.44,0,22.08,3.95,28.94,11.88s10.3,18.91,10.3,32.98-3.52,25.06-10.54,33.14c-7.02,8.09-16.6,12.12-28.7,12.12s-22.02-4.07-28.94-12.24-10.38-19.17-10.38-33.02ZM1358.68,512.88c0,21.8,7.7,32.68,23.12,32.68,7.18,0,12.82-2.92,16.9-8.77,4.08-5.83,6.12-13.82,6.12-23.94,0-21.52-7.68-32.28-23.02-32.28-7.02,0-12.64,2.88-16.82,8.61-4.2,5.73-6.28,13.64-6.28,23.68l-.02.02Z"/>
          <path class="cls-3" d="M1484.44,484.49c-3.36-2.32-6.74-3.49-10.14-3.49-5.46,0-10.24,2.52-14.32,7.55-4.08,5.03-6.12,11.08-6.12,18.17v49.82h-15.4v-86.87h15.4v13.88c5.62-10.32,13.98-15.49,25.06-15.49,2.76,0,6.74.48,11.92,1.46l-6.4,15.01v-.02Z"/>
          <path class="cls-3" d="M1534.96,571.29c-2,5.51-6.2,10.1-12.6,13.8-6.4,3.67-13.56,5.51-21.44,5.51v-13.8c6.44,0,11.94-1.5,16.54-4.49,4.6-2.99,6.9-6.67,6.9-10.98,0-4.75-.84-9.44-2.52-14.08-1.68-4.63-3.84-10.34-6.48-17.15l-23.52-60.44h15.74l25.54,67.17,22.94-67.17h15.74l-36.82,101.65-.02-.02Z"/>
        </g>
      </g>
    </g>
  </g>
</svg>